%TF.GenerationSoftware,KiCad,Pcbnew,9.0.3*%
%TF.CreationDate,2025-07-19T15:28:30-07:00*%
%TF.ProjectId,ayushi_macropad,61797573-6869-45f6-9d61-63726f706164,rev?*%
%TF.SameCoordinates,Original*%
%TF.FileFunction,Soldermask,Top*%
%TF.FilePolarity,Negative*%
%FSLAX46Y46*%
G04 Gerber Fmt 4.6, Leading zero omitted, Abs format (unit mm)*
G04 Created by KiCad (PCBNEW 9.0.3) date 2025-07-19 15:28:30*
%MOMM*%
%LPD*%
G01*
G04 APERTURE LIST*
G04 Aperture macros list*
%AMRoundRect*
0 Rectangle with rounded corners*
0 $1 Rounding radius*
0 $2 $3 $4 $5 $6 $7 $8 $9 X,Y pos of 4 corners*
0 Add a 4 corners polygon primitive as box body*
4,1,4,$2,$3,$4,$5,$6,$7,$8,$9,$2,$3,0*
0 Add four circle primitives for the rounded corners*
1,1,$1+$1,$2,$3*
1,1,$1+$1,$4,$5*
1,1,$1+$1,$6,$7*
1,1,$1+$1,$8,$9*
0 Add four rect primitives between the rounded corners*
20,1,$1+$1,$2,$3,$4,$5,0*
20,1,$1+$1,$4,$5,$6,$7,0*
20,1,$1+$1,$6,$7,$8,$9,0*
20,1,$1+$1,$8,$9,$2,$3,0*%
G04 Aperture macros list end*
%ADD10RoundRect,0.102000X-0.907500X-0.907500X0.907500X-0.907500X0.907500X0.907500X-0.907500X0.907500X0*%
%ADD11C,2.019000*%
%ADD12C,1.400000*%
%ADD13C,1.700000*%
%ADD14C,4.000000*%
%ADD15C,2.200000*%
%ADD16RoundRect,0.152400X1.063600X0.609600X-1.063600X0.609600X-1.063600X-0.609600X1.063600X-0.609600X0*%
%ADD17C,1.524000*%
%ADD18RoundRect,0.152400X-1.063600X-0.609600X1.063600X-0.609600X1.063600X0.609600X-1.063600X0.609600X0*%
G04 APERTURE END LIST*
D10*
%TO.C,D3*%
X152460000Y-104000000D03*
D11*
X155000000Y-104000000D03*
%TD*%
%TO.C,D1*%
X155040000Y-86000000D03*
D10*
X152500000Y-86000000D03*
%TD*%
D12*
%TO.C,R1*%
X140420000Y-86000000D03*
X145500000Y-86000000D03*
%TD*%
D11*
%TO.C,D2*%
X155000000Y-95000000D03*
D10*
X152460000Y-95000000D03*
%TD*%
D13*
%TO.C,SW1*%
X115230000Y-76040000D03*
D14*
X120310000Y-76040000D03*
D13*
X125390000Y-76040000D03*
D15*
X122850000Y-70960000D03*
X116500000Y-73500000D03*
%TD*%
D12*
%TO.C,R2*%
X140420000Y-95000000D03*
X145500000Y-95000000D03*
%TD*%
%TO.C,R3*%
X140420000Y-104000000D03*
X145500000Y-104000000D03*
%TD*%
D16*
%TO.C,U1*%
X138925000Y-63000000D03*
D17*
X139760000Y-63000000D03*
D16*
X138925000Y-65540000D03*
D17*
X139760000Y-65540000D03*
D16*
X138925000Y-68080000D03*
D17*
X139760000Y-68080000D03*
D16*
X138925000Y-70620000D03*
D17*
X139760000Y-70620000D03*
D16*
X138925000Y-73160000D03*
D17*
X139760000Y-73160000D03*
D16*
X138925000Y-75700000D03*
D17*
X139760000Y-75700000D03*
D16*
X138925000Y-78240000D03*
D17*
X139760000Y-78240000D03*
X155000000Y-78240000D03*
D18*
X155835000Y-78240000D03*
D17*
X155000000Y-75700000D03*
D18*
X155835000Y-75700000D03*
D17*
X155000000Y-73160000D03*
D18*
X155835000Y-73160000D03*
D17*
X155000000Y-70620000D03*
D18*
X155835000Y-70620000D03*
D17*
X155000000Y-68080000D03*
D18*
X155835000Y-68080000D03*
D17*
X155000000Y-65540000D03*
D18*
X155835000Y-65540000D03*
D17*
X155000000Y-63000000D03*
D18*
X155835000Y-63000000D03*
%TD*%
D13*
%TO.C,SW3*%
X115340000Y-120500000D03*
D14*
X120420000Y-120500000D03*
D13*
X125500000Y-120500000D03*
D15*
X122960000Y-115420000D03*
X116610000Y-117960000D03*
%TD*%
D13*
%TO.C,SW2*%
X115230000Y-98040000D03*
D14*
X120310000Y-98040000D03*
D13*
X125390000Y-98040000D03*
D15*
X122850000Y-92960000D03*
X116500000Y-95500000D03*
%TD*%
M02*
