%TF.GenerationSoftware,KiCad,Pcbnew,9.0.3*%
%TF.CreationDate,2025-07-19T15:28:30-07:00*%
%TF.ProjectId,ayushi_macropad,61797573-6869-45f6-9d61-63726f706164,rev?*%
%TF.SameCoordinates,Original*%
%TF.FileFunction,Copper,L1,Top*%
%TF.FilePolarity,Positive*%
%FSLAX46Y46*%
G04 Gerber Fmt 4.6, Leading zero omitted, Abs format (unit mm)*
G04 Created by KiCad (PCBNEW 9.0.3) date 2025-07-19 15:28:30*
%MOMM*%
%LPD*%
G01*
G04 APERTURE LIST*
G04 Aperture macros list*
%AMRoundRect*
0 Rectangle with rounded corners*
0 $1 Rounding radius*
0 $2 $3 $4 $5 $6 $7 $8 $9 X,Y pos of 4 corners*
0 Add a 4 corners polygon primitive as box body*
4,1,4,$2,$3,$4,$5,$6,$7,$8,$9,$2,$3,0*
0 Add four circle primitives for the rounded corners*
1,1,$1+$1,$2,$3*
1,1,$1+$1,$4,$5*
1,1,$1+$1,$6,$7*
1,1,$1+$1,$8,$9*
0 Add four rect primitives between the rounded corners*
20,1,$1+$1,$2,$3,$4,$5,0*
20,1,$1+$1,$4,$5,$6,$7,0*
20,1,$1+$1,$6,$7,$8,$9,0*
20,1,$1+$1,$8,$9,$2,$3,0*%
G04 Aperture macros list end*
%TA.AperFunction,ComponentPad*%
%ADD10R,1.815000X1.815000*%
%TD*%
%TA.AperFunction,ComponentPad*%
%ADD11C,1.815000*%
%TD*%
%TA.AperFunction,ComponentPad*%
%ADD12C,1.400000*%
%TD*%
%TA.AperFunction,ComponentPad*%
%ADD13C,2.200000*%
%TD*%
%TA.AperFunction,SMDPad,CuDef*%
%ADD14RoundRect,0.152400X1.063600X0.609600X-1.063600X0.609600X-1.063600X-0.609600X1.063600X-0.609600X0*%
%TD*%
%TA.AperFunction,ComponentPad*%
%ADD15C,1.524000*%
%TD*%
%TA.AperFunction,SMDPad,CuDef*%
%ADD16RoundRect,0.152400X-1.063600X-0.609600X1.063600X-0.609600X1.063600X0.609600X-1.063600X0.609600X0*%
%TD*%
%TA.AperFunction,Conductor*%
%ADD17C,0.200000*%
%TD*%
G04 APERTURE END LIST*
D10*
%TO.P,D3,C*%
%TO.N,GND*%
X152460000Y-104000000D03*
D11*
%TO.P,D3,A*%
%TO.N,Net-(D3-PadA)*%
X155000000Y-104000000D03*
%TD*%
%TO.P,D1,A*%
%TO.N,Net-(D1-PadA)*%
X155040000Y-86000000D03*
D10*
%TO.P,D1,C*%
%TO.N,GND*%
X152500000Y-86000000D03*
%TD*%
D12*
%TO.P,R1,1*%
%TO.N,Net-(D1-PadA)*%
X140420000Y-86000000D03*
%TO.P,R1,2*%
%TO.N,LED3*%
X145500000Y-86000000D03*
%TD*%
D11*
%TO.P,D2,A*%
%TO.N,Net-(D2-PadA)*%
X155000000Y-95000000D03*
D10*
%TO.P,D2,C*%
%TO.N,GND*%
X152460000Y-95000000D03*
%TD*%
D13*
%TO.P,SW1,1,1*%
%TO.N,button1*%
X122850000Y-70960000D03*
%TO.P,SW1,2,2*%
%TO.N,GND*%
X116500000Y-73500000D03*
%TD*%
D12*
%TO.P,R2,1*%
%TO.N,Net-(D2-PadA)*%
X140420000Y-95000000D03*
%TO.P,R2,2*%
%TO.N,LED2*%
X145500000Y-95000000D03*
%TD*%
%TO.P,R3,1*%
%TO.N,Net-(D3-PadA)*%
X140420000Y-104000000D03*
%TO.P,R3,2*%
%TO.N,LED1*%
X145500000Y-104000000D03*
%TD*%
D14*
%TO.P,U1,1,GPIO26/ADC0/A0*%
%TO.N,LED1*%
X138925000Y-63000000D03*
D15*
X139760000Y-63000000D03*
D14*
%TO.P,U1,2,GPIO27/ADC1/A1*%
%TO.N,LED2*%
X138925000Y-65540000D03*
D15*
X139760000Y-65540000D03*
D14*
%TO.P,U1,3,GPIO28/ADC2/A2*%
%TO.N,LED3*%
X138925000Y-68080000D03*
D15*
X139760000Y-68080000D03*
D14*
%TO.P,U1,4,GPIO29/ADC3/A3*%
%TO.N,button1*%
X138925000Y-70620000D03*
D15*
X139760000Y-70620000D03*
D14*
%TO.P,U1,5,GPIO6/SDA*%
%TO.N,button2*%
X138925000Y-73160000D03*
D15*
X139760000Y-73160000D03*
D14*
%TO.P,U1,6,GPIO7/SCL*%
%TO.N,button3*%
X138925000Y-75700000D03*
D15*
X139760000Y-75700000D03*
D14*
%TO.P,U1,7,GPIO0/TX*%
%TO.N,unconnected-(U1-GPIO0{slash}TX-Pad7)*%
X138925000Y-78240000D03*
D15*
X139760000Y-78240000D03*
%TO.P,U1,8,GPIO1/RX*%
%TO.N,unconnected-(U1-GPIO1{slash}RX-Pad8)*%
X155000000Y-78240000D03*
D16*
X155835000Y-78240000D03*
D15*
%TO.P,U1,9,GPIO2/SCK*%
%TO.N,unconnected-(U1-GPIO2{slash}SCK-Pad9)*%
X155000000Y-75700000D03*
D16*
X155835000Y-75700000D03*
D15*
%TO.P,U1,10,GPIO4/MISO*%
%TO.N,unconnected-(U1-GPIO4{slash}MISO-Pad10)*%
X155000000Y-73160000D03*
D16*
X155835000Y-73160000D03*
D15*
%TO.P,U1,11,GPIO3/MOSI*%
%TO.N,unconnected-(U1-GPIO3{slash}MOSI-Pad11)*%
X155000000Y-70620000D03*
D16*
X155835000Y-70620000D03*
D15*
%TO.P,U1,12,3V3*%
%TO.N,unconnected-(U1-3V3-Pad12)*%
X155000000Y-68080000D03*
D16*
X155835000Y-68080000D03*
D15*
%TO.P,U1,13,GND*%
%TO.N,GND*%
X155000000Y-65540000D03*
D16*
X155835000Y-65540000D03*
D15*
%TO.P,U1,14,VBUS*%
%TO.N,unconnected-(U1-VBUS-Pad14)*%
X155000000Y-63000000D03*
D16*
X155835000Y-63000000D03*
%TD*%
D13*
%TO.P,SW3,1,1*%
%TO.N,button3*%
X122960000Y-115420000D03*
%TO.P,SW3,2,2*%
%TO.N,GND*%
X116610000Y-117960000D03*
%TD*%
%TO.P,SW2,1,1*%
%TO.N,button2*%
X122850000Y-92960000D03*
%TO.P,SW2,2,2*%
%TO.N,GND*%
X116500000Y-95500000D03*
%TD*%
D17*
%TO.N,GND*%
X152460000Y-104000000D02*
X156208500Y-100251500D01*
X156208500Y-94499422D02*
X155500578Y-93791500D01*
X155500578Y-93791500D02*
X153668500Y-93791500D01*
X153668500Y-93791500D02*
X152460000Y-95000000D01*
X156208500Y-100251500D02*
X156208500Y-94499422D01*
X152460000Y-95000000D02*
X156248500Y-91211500D01*
X156248500Y-85499422D02*
X155540578Y-84791500D01*
X153708500Y-84791500D02*
X152500000Y-86000000D01*
X156248500Y-91211500D02*
X156248500Y-85499422D01*
X155540578Y-84791500D02*
X153708500Y-84791500D01*
X152500000Y-86000000D02*
X152500000Y-68040000D01*
X152500000Y-68040000D02*
X155000000Y-65540000D01*
%TO.N,LED1*%
X145500000Y-104000000D02*
X138500000Y-97000000D01*
X138500000Y-97000000D02*
X138500000Y-81003310D01*
X122269686Y-72361000D02*
X121449000Y-71540314D01*
X138500000Y-81003310D02*
X140823000Y-78680310D01*
X140823000Y-78680310D02*
X140823000Y-72719690D01*
X136991374Y-72361000D02*
X122269686Y-72361000D01*
X140823000Y-72719690D02*
X139786310Y-71683000D01*
X137669374Y-71683000D02*
X136991374Y-72361000D01*
X139786310Y-71683000D02*
X137669374Y-71683000D01*
X121449000Y-71540314D02*
X121449000Y-70379686D01*
X121449000Y-70379686D02*
X128828686Y-63000000D01*
X128828686Y-63000000D02*
X139760000Y-63000000D01*
%TO.N,LED2*%
X145500000Y-95000000D02*
X139419000Y-88919000D01*
X139419000Y-88919000D02*
X139419000Y-85585372D01*
X140200310Y-69143000D02*
X137669374Y-69143000D01*
X139419000Y-85585372D02*
X145099000Y-79905372D01*
X145099000Y-79905372D02*
X145099000Y-74041690D01*
X137669374Y-69143000D02*
X137408000Y-68881626D01*
X138682370Y-65540000D02*
X139760000Y-65540000D01*
X145099000Y-74041690D02*
X140200310Y-69143000D01*
X137408000Y-66814370D02*
X138682370Y-65540000D01*
X137408000Y-68881626D02*
X137408000Y-66814370D01*
%TO.N,LED3*%
X145500000Y-86000000D02*
X145500000Y-73820000D01*
X145500000Y-73820000D02*
X139760000Y-68080000D01*
%TO.N,Net-(D3-PadA)*%
X140420000Y-104000000D02*
X141920000Y-105500000D01*
X141920000Y-105500000D02*
X153500000Y-105500000D01*
X153500000Y-105500000D02*
X155000000Y-104000000D01*
%TO.N,Net-(D2-PadA)*%
X140420000Y-95000000D02*
X141628500Y-96208500D01*
X153791500Y-96208500D02*
X155000000Y-95000000D01*
X141628500Y-96208500D02*
X153791500Y-96208500D01*
%TO.N,Net-(D1-PadA)*%
X140420000Y-86000000D02*
X141628500Y-87208500D01*
X153831500Y-87208500D02*
X155040000Y-86000000D01*
X141628500Y-87208500D02*
X153831500Y-87208500D01*
%TO.N,button3*%
X122960000Y-115420000D02*
X137408000Y-100972000D01*
X137408000Y-100972000D02*
X137408000Y-77438374D01*
X137408000Y-77438374D02*
X139146374Y-75700000D01*
X139146374Y-75700000D02*
X139760000Y-75700000D01*
%TO.N,button2*%
X122850000Y-92960000D02*
X122850000Y-89235000D01*
X122850000Y-89235000D02*
X138925000Y-73160000D01*
X138925000Y-73160000D02*
X139760000Y-73160000D01*
%TO.N,button1*%
X122850000Y-70960000D02*
X139420000Y-70960000D01*
X139420000Y-70960000D02*
X139760000Y-70620000D01*
%TO.N,GND*%
X116500000Y-95500000D02*
X116500000Y-117850000D01*
X116500000Y-117850000D02*
X116610000Y-117960000D01*
X116500000Y-73500000D02*
X116500000Y-95500000D01*
%TD*%
M02*
