%TF.GenerationSoftware,KiCad,Pcbnew,9.0.3*%
%TF.CreationDate,2025-07-19T15:28:30-07:00*%
%TF.ProjectId,ayushi_macropad,61797573-6869-45f6-9d61-63726f706164,rev?*%
%TF.SameCoordinates,Original*%
%TF.FileFunction,Legend,Top*%
%TF.FilePolarity,Positive*%
%FSLAX46Y46*%
G04 Gerber Fmt 4.6, Leading zero omitted, Abs format (unit mm)*
G04 Created by KiCad (PCBNEW 9.0.3) date 2025-07-19 15:28:30*
%MOMM*%
%LPD*%
G01*
G04 APERTURE LIST*
%ADD10C,0.100000*%
%ADD11C,0.200000*%
%ADD12C,0.150000*%
%ADD13C,0.101600*%
%ADD14C,0.127000*%
%ADD15C,0.120000*%
%ADD16C,0.504000*%
G04 APERTURE END LIST*
D10*
X149803884Y-129372419D02*
X149803884Y-128372419D01*
X149803884Y-128753371D02*
X149899122Y-128705752D01*
X149899122Y-128705752D02*
X150089598Y-128705752D01*
X150089598Y-128705752D02*
X150184836Y-128753371D01*
X150184836Y-128753371D02*
X150232455Y-128800990D01*
X150232455Y-128800990D02*
X150280074Y-128896228D01*
X150280074Y-128896228D02*
X150280074Y-129181942D01*
X150280074Y-129181942D02*
X150232455Y-129277180D01*
X150232455Y-129277180D02*
X150184836Y-129324800D01*
X150184836Y-129324800D02*
X150089598Y-129372419D01*
X150089598Y-129372419D02*
X149899122Y-129372419D01*
X149899122Y-129372419D02*
X149803884Y-129324800D01*
X150613408Y-128705752D02*
X150851503Y-129372419D01*
X151089598Y-128705752D02*
X150851503Y-129372419D01*
X150851503Y-129372419D02*
X150756265Y-129610514D01*
X150756265Y-129610514D02*
X150708646Y-129658133D01*
X150708646Y-129658133D02*
X150613408Y-129705752D01*
X152184837Y-129086704D02*
X152661027Y-129086704D01*
X152089599Y-129372419D02*
X152422932Y-128372419D01*
X152422932Y-128372419D02*
X152756265Y-129372419D01*
X152994361Y-128705752D02*
X153232456Y-129372419D01*
X153470551Y-128705752D02*
X153232456Y-129372419D01*
X153232456Y-129372419D02*
X153137218Y-129610514D01*
X153137218Y-129610514D02*
X153089599Y-129658133D01*
X153089599Y-129658133D02*
X152994361Y-129705752D01*
X154280075Y-128705752D02*
X154280075Y-129372419D01*
X153851504Y-128705752D02*
X153851504Y-129229561D01*
X153851504Y-129229561D02*
X153899123Y-129324800D01*
X153899123Y-129324800D02*
X153994361Y-129372419D01*
X153994361Y-129372419D02*
X154137218Y-129372419D01*
X154137218Y-129372419D02*
X154232456Y-129324800D01*
X154232456Y-129324800D02*
X154280075Y-129277180D01*
X154708647Y-129324800D02*
X154803885Y-129372419D01*
X154803885Y-129372419D02*
X154994361Y-129372419D01*
X154994361Y-129372419D02*
X155089599Y-129324800D01*
X155089599Y-129324800D02*
X155137218Y-129229561D01*
X155137218Y-129229561D02*
X155137218Y-129181942D01*
X155137218Y-129181942D02*
X155089599Y-129086704D01*
X155089599Y-129086704D02*
X154994361Y-129039085D01*
X154994361Y-129039085D02*
X154851504Y-129039085D01*
X154851504Y-129039085D02*
X154756266Y-128991466D01*
X154756266Y-128991466D02*
X154708647Y-128896228D01*
X154708647Y-128896228D02*
X154708647Y-128848609D01*
X154708647Y-128848609D02*
X154756266Y-128753371D01*
X154756266Y-128753371D02*
X154851504Y-128705752D01*
X154851504Y-128705752D02*
X154994361Y-128705752D01*
X154994361Y-128705752D02*
X155089599Y-128753371D01*
X155565790Y-129372419D02*
X155565790Y-128372419D01*
X155994361Y-129372419D02*
X155994361Y-128848609D01*
X155994361Y-128848609D02*
X155946742Y-128753371D01*
X155946742Y-128753371D02*
X155851504Y-128705752D01*
X155851504Y-128705752D02*
X155708647Y-128705752D01*
X155708647Y-128705752D02*
X155613409Y-128753371D01*
X155613409Y-128753371D02*
X155565790Y-128800990D01*
X156470552Y-129372419D02*
X156470552Y-128705752D01*
X156470552Y-128372419D02*
X156422933Y-128420038D01*
X156422933Y-128420038D02*
X156470552Y-128467657D01*
X156470552Y-128467657D02*
X156518171Y-128420038D01*
X156518171Y-128420038D02*
X156470552Y-128372419D01*
X156470552Y-128372419D02*
X156470552Y-128467657D01*
X157661028Y-129324800D02*
X157803885Y-129372419D01*
X157803885Y-129372419D02*
X158041980Y-129372419D01*
X158041980Y-129372419D02*
X158137218Y-129324800D01*
X158137218Y-129324800D02*
X158184837Y-129277180D01*
X158184837Y-129277180D02*
X158232456Y-129181942D01*
X158232456Y-129181942D02*
X158232456Y-129086704D01*
X158232456Y-129086704D02*
X158184837Y-128991466D01*
X158184837Y-128991466D02*
X158137218Y-128943847D01*
X158137218Y-128943847D02*
X158041980Y-128896228D01*
X158041980Y-128896228D02*
X157851504Y-128848609D01*
X157851504Y-128848609D02*
X157756266Y-128800990D01*
X157756266Y-128800990D02*
X157708647Y-128753371D01*
X157708647Y-128753371D02*
X157661028Y-128658133D01*
X157661028Y-128658133D02*
X157661028Y-128562895D01*
X157661028Y-128562895D02*
X157708647Y-128467657D01*
X157708647Y-128467657D02*
X157756266Y-128420038D01*
X157756266Y-128420038D02*
X157851504Y-128372419D01*
X157851504Y-128372419D02*
X158089599Y-128372419D01*
X158089599Y-128372419D02*
X158232456Y-128420038D01*
X158661028Y-129277180D02*
X158708647Y-129324800D01*
X158708647Y-129324800D02*
X158661028Y-129372419D01*
X158661028Y-129372419D02*
X158613409Y-129324800D01*
X158613409Y-129324800D02*
X158661028Y-129277180D01*
X158661028Y-129277180D02*
X158661028Y-129372419D01*
D11*
G36*
X133692923Y-115137312D02*
G01*
X133866133Y-115192573D01*
X134010790Y-115281102D01*
X134101839Y-115370228D01*
X134164871Y-115468243D01*
X134202758Y-115577118D01*
X134215771Y-115700040D01*
X134193652Y-115856232D01*
X134127187Y-115999889D01*
X134010973Y-116135830D01*
X133901924Y-116224543D01*
X133730887Y-116341177D01*
X133985877Y-116681163D01*
X134019583Y-116605692D01*
X134110352Y-116420956D01*
X134184446Y-116299228D01*
X134268184Y-116198429D01*
X134369611Y-116111241D01*
X134490727Y-116037095D01*
X134621631Y-115981706D01*
X134752827Y-115949152D01*
X134885851Y-115938360D01*
X135060045Y-115957149D01*
X135212605Y-116011653D01*
X135348386Y-116102124D01*
X135456803Y-116221668D01*
X135519425Y-116352914D01*
X135540544Y-116500912D01*
X135526456Y-116619037D01*
X135485326Y-116722817D01*
X135416163Y-116815802D01*
X135326659Y-116888560D01*
X135227410Y-116931309D01*
X135114829Y-116945861D01*
X134992344Y-116924792D01*
X134887133Y-116861964D01*
X134832363Y-116800777D01*
X134800826Y-116734309D01*
X134790230Y-116660097D01*
X134799737Y-116600388D01*
X134828332Y-116546707D01*
X134853428Y-116513185D01*
X134861854Y-116479663D01*
X134852439Y-116462010D01*
X134815509Y-116454384D01*
X134728565Y-116473257D01*
X134639245Y-116535084D01*
X134543117Y-116656067D01*
X134438907Y-116834675D01*
X134296554Y-117113839D01*
X134334656Y-117164947D01*
X134458952Y-117317083D01*
X134533958Y-117385865D01*
X134605537Y-117426840D01*
X134694502Y-117452993D01*
X134805251Y-117462435D01*
X134947308Y-117476913D01*
X135045079Y-117514823D01*
X135110717Y-117571978D01*
X135150937Y-117650234D01*
X135165570Y-117756992D01*
X135149023Y-117861960D01*
X135102189Y-117942006D01*
X135030528Y-117995501D01*
X134941538Y-118013447D01*
X134795725Y-117998609D01*
X134649912Y-117983954D01*
X134459586Y-117996594D01*
X134332824Y-118009234D01*
X134248162Y-117994831D01*
X134168143Y-117950432D01*
X134045411Y-117815976D01*
X133944112Y-117698374D01*
X133840747Y-117817202D01*
X133727962Y-117908589D01*
X133604675Y-117975345D01*
X133454069Y-118029127D01*
X133299504Y-118061278D01*
X133139576Y-118072065D01*
X132925148Y-118054621D01*
X132734826Y-118004259D01*
X132564352Y-117922246D01*
X132410511Y-117807550D01*
X132280755Y-117665369D01*
X132190344Y-117510873D01*
X132135894Y-117341211D01*
X132117236Y-117152124D01*
X132117609Y-117147911D01*
X132832379Y-117147911D01*
X132844864Y-117249700D01*
X132880752Y-117335322D01*
X132940457Y-117408579D01*
X133017994Y-117463491D01*
X133110974Y-117497358D01*
X133223656Y-117509330D01*
X133346550Y-117496853D01*
X133437796Y-117463168D01*
X133521584Y-117402705D01*
X133635266Y-117286763D01*
X133194347Y-116660280D01*
X132992728Y-116813146D01*
X132900889Y-116906294D01*
X132850811Y-117007358D01*
X132832379Y-117147911D01*
X132117609Y-117147911D01*
X132132479Y-116980163D01*
X132176410Y-116829059D01*
X132248105Y-116694854D01*
X132349019Y-116574724D01*
X132482868Y-116467206D01*
X132823220Y-116269736D01*
X132907301Y-116227787D01*
X132801335Y-116036956D01*
X132744353Y-115872690D01*
X132726866Y-115729166D01*
X132729677Y-115701688D01*
X133348220Y-115701688D01*
X133359227Y-115775920D01*
X133395875Y-115863153D01*
X133466006Y-115967669D01*
X133563447Y-115921898D01*
X133626829Y-115865335D01*
X133663732Y-115797449D01*
X133676482Y-115714328D01*
X133664162Y-115645228D01*
X133628122Y-115589764D01*
X133574172Y-115552352D01*
X133508138Y-115539755D01*
X133417542Y-115558652D01*
X133367078Y-115609568D01*
X133348220Y-115701688D01*
X132729677Y-115701688D01*
X132740318Y-115597652D01*
X132779273Y-115482276D01*
X132843622Y-115379570D01*
X132935877Y-115287330D01*
X133083777Y-115195764D01*
X133263728Y-115138244D01*
X133483958Y-115117704D01*
X133692923Y-115137312D01*
G37*
G36*
X138400878Y-115840232D02*
G01*
X138559983Y-115895324D01*
X138699783Y-115986052D01*
X138823534Y-116116046D01*
X138918187Y-116267559D01*
X138988702Y-116446577D01*
X139033600Y-116658176D01*
X139049581Y-116908492D01*
X139033237Y-117167538D01*
X138987409Y-117385648D01*
X138915616Y-117569340D01*
X138819504Y-117724019D01*
X138693407Y-117856709D01*
X138550759Y-117949355D01*
X138388212Y-118005638D01*
X138200348Y-118025170D01*
X138051107Y-118010206D01*
X137920263Y-117966919D01*
X137831994Y-117916689D01*
X137677547Y-117809199D01*
X137677547Y-118137095D01*
X137690724Y-118215134D01*
X137723695Y-118255044D01*
X137778297Y-118268803D01*
X137874651Y-118256346D01*
X137983644Y-118247920D01*
X138069254Y-118261997D01*
X138126371Y-118300222D01*
X138162609Y-118364404D01*
X138176535Y-118465724D01*
X138159027Y-118579096D01*
X138112222Y-118653340D01*
X138035380Y-118699415D01*
X137916233Y-118716866D01*
X137685423Y-118701113D01*
X137303489Y-118681695D01*
X136946650Y-118713019D01*
X136870996Y-118716866D01*
X136771056Y-118697166D01*
X136690561Y-118638647D01*
X136637663Y-118551199D01*
X136619120Y-118437697D01*
X136633994Y-118326859D01*
X136672498Y-118257111D01*
X136732687Y-118215921D01*
X136822269Y-118200842D01*
X136884368Y-118215130D01*
X136954893Y-118233815D01*
X136988713Y-118217515D01*
X137016240Y-118153462D01*
X137029448Y-117994213D01*
X137029448Y-116920949D01*
X137685973Y-116920949D01*
X137697685Y-117096157D01*
X137729581Y-117234059D01*
X137778114Y-117341901D01*
X137849567Y-117431047D01*
X137930717Y-117480910D01*
X138025593Y-117497606D01*
X138123439Y-117480825D01*
X138207313Y-117430820D01*
X138281315Y-117341901D01*
X138332174Y-117233752D01*
X138365468Y-117095851D01*
X138377669Y-116920949D01*
X138365764Y-116748807D01*
X138333196Y-116612237D01*
X138283330Y-116504392D01*
X138210768Y-116415213D01*
X138128930Y-116365354D01*
X138033836Y-116348688D01*
X137933243Y-116365361D01*
X137849506Y-116414338D01*
X137778114Y-116500179D01*
X137729851Y-116605395D01*
X137697831Y-116742905D01*
X137685973Y-116920949D01*
X137029448Y-116920949D01*
X137029448Y-116602395D01*
X137016761Y-116442126D01*
X136990541Y-116378478D01*
X136958923Y-116362609D01*
X136884368Y-116386240D01*
X136818056Y-116395765D01*
X136730566Y-116380896D01*
X136671611Y-116340179D01*
X136633770Y-116270990D01*
X136619120Y-116160743D01*
X136636382Y-116047545D01*
X136685432Y-115959426D01*
X136761085Y-115899663D01*
X136855425Y-115879741D01*
X136885101Y-115879741D01*
X137032745Y-115904837D01*
X137155111Y-115914912D01*
X137382990Y-115894945D01*
X137463224Y-115884870D01*
X137519807Y-115899748D01*
X137554620Y-115943671D01*
X137568736Y-116031050D01*
X137568736Y-116156346D01*
X137710956Y-116005903D01*
X137864241Y-115903032D01*
X138031406Y-115841925D01*
X138217201Y-115821123D01*
X138400878Y-115840232D01*
G37*
G36*
X140606733Y-115839726D02*
G01*
X140824670Y-115888504D01*
X140979405Y-115959426D01*
X141078244Y-116044540D01*
X141151798Y-116160595D01*
X141199906Y-116315449D01*
X141217725Y-116520512D01*
X141217725Y-117386964D01*
X141228036Y-117471254D01*
X141251474Y-117509511D01*
X141285319Y-117521053D01*
X141348700Y-117521053D01*
X141378192Y-117521053D01*
X141468156Y-117537778D01*
X141542873Y-117587548D01*
X141593534Y-117661060D01*
X141610467Y-117749298D01*
X141596948Y-117834247D01*
X141556833Y-117907806D01*
X141486453Y-117973330D01*
X141399909Y-118020189D01*
X141295663Y-118049782D01*
X141169548Y-118060341D01*
X141004353Y-118041100D01*
X140877647Y-117987968D01*
X140780196Y-117902898D01*
X140707562Y-117781172D01*
X140552119Y-117904352D01*
X140385987Y-117990640D01*
X140206546Y-118042612D01*
X140010188Y-118060341D01*
X139795267Y-118039250D01*
X139621732Y-117980346D01*
X139480792Y-117886502D01*
X139394924Y-117792996D01*
X139333925Y-117686507D01*
X139296413Y-117564447D01*
X139283321Y-117423051D01*
X139290165Y-117353808D01*
X139955233Y-117353808D01*
X139969602Y-117437298D01*
X140009076Y-117493773D01*
X140076460Y-117530183D01*
X140184211Y-117544317D01*
X140326572Y-117527331D01*
X140427784Y-117481758D01*
X140498799Y-117410199D01*
X140544223Y-117307737D01*
X140561200Y-117163115D01*
X140561200Y-117071891D01*
X140188241Y-117175389D01*
X140043381Y-117229323D01*
X139975310Y-117288519D01*
X139955233Y-117353808D01*
X139290165Y-117353808D01*
X139300289Y-117251382D01*
X139347430Y-117114604D01*
X139422204Y-117005161D01*
X139526388Y-116918319D01*
X139665806Y-116852805D01*
X139836751Y-116803878D01*
X140044260Y-116760664D01*
X140317228Y-116700037D01*
X140449825Y-116645259D01*
X140509251Y-116594346D01*
X140544533Y-116529456D01*
X140556987Y-116445957D01*
X140537042Y-116358437D01*
X140475471Y-116284757D01*
X140386115Y-116236621D01*
X140272871Y-116219727D01*
X140188927Y-116232075D01*
X140148211Y-116261648D01*
X140134935Y-116307838D01*
X140139148Y-116366639D01*
X140139148Y-116383492D01*
X140128362Y-116457201D01*
X140096406Y-116522089D01*
X140040963Y-116580779D01*
X139933160Y-116639787D01*
X139796598Y-116660464D01*
X139689174Y-116648704D01*
X139598500Y-116615073D01*
X139520908Y-116559897D01*
X139460419Y-116486904D01*
X139424588Y-116404049D01*
X139412281Y-116308021D01*
X139426631Y-116202590D01*
X139468872Y-116110039D01*
X139541279Y-116026765D01*
X139650418Y-115951366D01*
X139814808Y-115883321D01*
X140029414Y-115837947D01*
X140306577Y-115821123D01*
X140606733Y-115839726D01*
G37*
G36*
X142629143Y-116458597D02*
G01*
X142629143Y-116630605D01*
X142624930Y-116890724D01*
X142616503Y-117171908D01*
X142612290Y-117285298D01*
X142625458Y-117407067D01*
X142658106Y-117479465D01*
X142705605Y-117519082D01*
X142771842Y-117532777D01*
X142835401Y-117520131D01*
X142880407Y-117483966D01*
X142910932Y-117418825D01*
X142923150Y-117310394D01*
X142918937Y-117260019D01*
X142918937Y-117205614D01*
X142914724Y-117163665D01*
X142930243Y-117060723D01*
X142971496Y-116993778D01*
X143038649Y-116952584D01*
X143142053Y-116937069D01*
X143232472Y-116952018D01*
X143301788Y-116994680D01*
X143355329Y-117068358D01*
X143392531Y-117184116D01*
X143407117Y-117358754D01*
X143393509Y-117521829D01*
X143355058Y-117659216D01*
X143293698Y-117775648D01*
X143209098Y-117874595D01*
X143105355Y-117952882D01*
X142981611Y-118010634D01*
X142833908Y-118047279D01*
X142657170Y-118060341D01*
X142462404Y-118043612D01*
X142309115Y-117997665D01*
X142188584Y-117926251D01*
X142094674Y-117829353D01*
X142024513Y-117703206D01*
X141978893Y-117540793D01*
X141962177Y-117332559D01*
X141972618Y-116981215D01*
X141983243Y-116629689D01*
X141983243Y-116495966D01*
X141976946Y-116401311D01*
X141964192Y-116364258D01*
X141936702Y-116345314D01*
X141873700Y-116336964D01*
X141806289Y-116336964D01*
X141733553Y-116321595D01*
X141675680Y-116275598D01*
X141638430Y-116207279D01*
X141625122Y-116116779D01*
X141638623Y-116025250D01*
X141677695Y-115949717D01*
X141736678Y-115896295D01*
X141801709Y-115879741D01*
X141881577Y-115879741D01*
X141965886Y-115862750D01*
X141999363Y-115820940D01*
X142012002Y-115707916D01*
X142012002Y-115502386D01*
X142022191Y-115408017D01*
X142048844Y-115343796D01*
X142089305Y-115301252D01*
X142184192Y-115263273D01*
X142371039Y-115246664D01*
X142503892Y-115259471D01*
X142569426Y-115288613D01*
X142605729Y-115346358D01*
X142621632Y-115472894D01*
X142621632Y-115699490D01*
X142629318Y-115809034D01*
X142644713Y-115850432D01*
X142678636Y-115870378D01*
X142764148Y-115879741D01*
X143066032Y-115879741D01*
X143179755Y-115896099D01*
X143252722Y-115939105D01*
X143296882Y-116007967D01*
X143313328Y-116112566D01*
X143298082Y-116214800D01*
X143257660Y-116281076D01*
X143192112Y-116321702D01*
X143091495Y-116336964D01*
X142750959Y-116336964D01*
X142673787Y-116346450D01*
X142645812Y-116366456D01*
X142634031Y-116400377D01*
X142629143Y-116458597D01*
G37*
G36*
X144526727Y-115310228D02*
G01*
X144526727Y-116071716D01*
X144705419Y-115933283D01*
X144831359Y-115862339D01*
X144962808Y-115823715D01*
X145135990Y-115809399D01*
X145330885Y-115826977D01*
X145483337Y-115875231D01*
X145602480Y-115950414D01*
X145694513Y-116053032D01*
X145750570Y-116168612D01*
X145789568Y-116336635D01*
X145804605Y-116574185D01*
X145804605Y-117296838D01*
X145818231Y-117433068D01*
X145847727Y-117490952D01*
X145886854Y-117506948D01*
X145944556Y-117502369D01*
X146010319Y-117497606D01*
X146090111Y-117511096D01*
X146143793Y-117547985D01*
X146178187Y-117610551D01*
X146191486Y-117710097D01*
X146173274Y-117846814D01*
X146126206Y-117932673D01*
X146052816Y-117983244D01*
X145943824Y-118001723D01*
X145733897Y-117984138D01*
X145523970Y-117966552D01*
X145324485Y-117984138D01*
X145125183Y-118001723D01*
X145029470Y-117983328D01*
X144955190Y-117929549D01*
X144907277Y-117848182D01*
X144890160Y-117738490D01*
X144902589Y-117634441D01*
X144934559Y-117567990D01*
X144983198Y-117527669D01*
X145052826Y-117509330D01*
X145115721Y-117499300D01*
X145142585Y-117475807D01*
X145154604Y-117436242D01*
X145159804Y-117362601D01*
X145159804Y-116720547D01*
X145146281Y-116581516D01*
X145111106Y-116486701D01*
X145058676Y-116423856D01*
X144987830Y-116385848D01*
X144892175Y-116372135D01*
X144763011Y-116391315D01*
X144666553Y-116444843D01*
X144594417Y-116534279D01*
X144545592Y-116670573D01*
X144526727Y-116871856D01*
X144526727Y-117367547D01*
X144533062Y-117446987D01*
X144546144Y-117478738D01*
X144575064Y-117496642D01*
X144651290Y-117514459D01*
X144722538Y-117544758D01*
X144767054Y-117609329D01*
X144784647Y-117724385D01*
X144767502Y-117854830D01*
X144723317Y-117936450D01*
X144654736Y-117984298D01*
X144553288Y-118001723D01*
X144372121Y-117984138D01*
X144132336Y-117966552D01*
X143942925Y-117979741D01*
X143728419Y-118001723D01*
X143624462Y-117981938D01*
X143543222Y-117924054D01*
X143490159Y-117837197D01*
X143471598Y-117724752D01*
X143486532Y-117612695D01*
X143525133Y-117542314D01*
X143585332Y-117500852D01*
X143674747Y-117485699D01*
X143743073Y-117497606D01*
X143811584Y-117509330D01*
X143843286Y-117493705D01*
X143869358Y-117431610D01*
X143881926Y-117276139D01*
X143881926Y-115888351D01*
X143869331Y-115732785D01*
X143843198Y-115670627D01*
X143811400Y-115654977D01*
X143736845Y-115672013D01*
X143670533Y-115680622D01*
X143582862Y-115665833D01*
X143523918Y-115625410D01*
X143486182Y-115556907D01*
X143471598Y-115447981D01*
X143490259Y-115330813D01*
X143542855Y-115242817D01*
X143623763Y-115184491D01*
X143727137Y-115164598D01*
X143886139Y-115176322D01*
X144045324Y-115188046D01*
X144269173Y-115176322D01*
X144413703Y-115164598D01*
X144475116Y-115179910D01*
X144512027Y-115224131D01*
X144526727Y-115310228D01*
G37*
G36*
X148214916Y-115815811D02*
G01*
X148090306Y-115797106D01*
X147994914Y-115744370D01*
X147930581Y-115662568D01*
X147909002Y-115559173D01*
X147797408Y-115518101D01*
X147682772Y-115504584D01*
X147538408Y-115518349D01*
X147440334Y-115554055D01*
X147375680Y-115607023D01*
X147336796Y-115678193D01*
X147322819Y-115773862D01*
X147322819Y-115824420D01*
X147332433Y-115870660D01*
X147359561Y-115901153D01*
X147408731Y-115919125D01*
X147533858Y-115928655D01*
X147909368Y-115933780D01*
X148357615Y-115917110D01*
X148483461Y-115912897D01*
X148533653Y-115904288D01*
X148581607Y-115917504D01*
X148611735Y-115957309D01*
X148624145Y-116038011D01*
X148624145Y-117296106D01*
X148637832Y-117434587D01*
X148667385Y-117493213D01*
X148706393Y-117509330D01*
X148784795Y-117502185D01*
X148850558Y-117497606D01*
X148919210Y-117510452D01*
X148966874Y-117546553D01*
X148998518Y-117610104D01*
X149011025Y-117714127D01*
X148993484Y-117849983D01*
X148948448Y-117934577D01*
X148878969Y-117983858D01*
X148776735Y-118001723D01*
X148534019Y-117980474D01*
X148278663Y-117967651D01*
X148086322Y-117984687D01*
X147902224Y-118001723D01*
X147821446Y-117985590D01*
X147764175Y-117939398D01*
X147725280Y-117856078D01*
X147709699Y-117717241D01*
X147720909Y-117615317D01*
X147748784Y-117554462D01*
X147789561Y-117520964D01*
X147846720Y-117509330D01*
X147875662Y-117513543D01*
X147904788Y-117513543D01*
X147937171Y-117503614D01*
X147958521Y-117472281D01*
X147967620Y-117406015D01*
X147967620Y-117277604D01*
X147967620Y-116478564D01*
X147949645Y-116383472D01*
X147905338Y-116341910D01*
X147776378Y-116329453D01*
X147564070Y-116329453D01*
X147464235Y-116329453D01*
X147379683Y-116339361D01*
X147345717Y-116360778D01*
X147330566Y-116405544D01*
X147322819Y-116529488D01*
X147322819Y-117284199D01*
X147338319Y-117462571D01*
X147365317Y-117505116D01*
X147407998Y-117513543D01*
X147442254Y-117513543D01*
X147476325Y-117509330D01*
X147528153Y-117520891D01*
X147566281Y-117555132D01*
X147593179Y-117619536D01*
X147604187Y-117730064D01*
X147590564Y-117841401D01*
X147553079Y-117925336D01*
X147492725Y-117983006D01*
X147416608Y-118001723D01*
X147211261Y-117976261D01*
X147005730Y-117967651D01*
X146720516Y-117980474D01*
X146502529Y-118001723D01*
X146407309Y-117982133D01*
X146332719Y-117924054D01*
X146284868Y-117837174D01*
X146267690Y-117720539D01*
X146281987Y-117609539D01*
X146318675Y-117540467D01*
X146375228Y-117500265D01*
X146458382Y-117485699D01*
X146566277Y-117505849D01*
X146599249Y-117509330D01*
X146635613Y-117492834D01*
X146664392Y-117429963D01*
X146678018Y-117276688D01*
X146678018Y-116433318D01*
X146672923Y-116376492D01*
X146661348Y-116348138D01*
X146637967Y-116332155D01*
X146586793Y-116325240D01*
X146458199Y-116325240D01*
X146372753Y-116311722D01*
X146316398Y-116275369D01*
X146281125Y-116215168D01*
X146267690Y-116121175D01*
X146282276Y-116014073D01*
X146320157Y-115946399D01*
X146379673Y-115906226D01*
X146468640Y-115891465D01*
X146573421Y-115891465D01*
X146644465Y-115884178D01*
X146673804Y-115868567D01*
X146688911Y-115837254D01*
X146699084Y-115761955D01*
X146723707Y-115596172D01*
X146780512Y-115460367D01*
X146868865Y-115348100D01*
X146992784Y-115255940D01*
X147160407Y-115183958D01*
X147383170Y-115135688D01*
X147675078Y-115117704D01*
X147948384Y-115132776D01*
X148156982Y-115173082D01*
X148313834Y-115232742D01*
X148419299Y-115300365D01*
X148488509Y-115375070D01*
X148528535Y-115457956D01*
X148542079Y-115552395D01*
X148531678Y-115626121D01*
X148501393Y-115688593D01*
X148449755Y-115742721D01*
X148347872Y-115796623D01*
X148214916Y-115815811D01*
G37*
G36*
X150010467Y-115997161D02*
G01*
X150010467Y-116198845D01*
X150186036Y-116026355D01*
X150364014Y-115910598D01*
X150547198Y-115843447D01*
X150739898Y-115821123D01*
X150912906Y-115835755D01*
X151056206Y-115876819D01*
X151175441Y-115941946D01*
X151274698Y-116031415D01*
X151356123Y-116148103D01*
X151404907Y-116264827D01*
X151439207Y-116435137D01*
X151452477Y-116676034D01*
X151452477Y-117304532D01*
X151466469Y-117442923D01*
X151496832Y-117501923D01*
X151537290Y-117518306D01*
X151600854Y-117505849D01*
X151664419Y-117497606D01*
X151746817Y-117511424D01*
X151802116Y-117549133D01*
X151837445Y-117612900D01*
X151851081Y-117714127D01*
X151832756Y-117848064D01*
X151785115Y-117932802D01*
X151710145Y-117983188D01*
X151597923Y-118001723D01*
X151395324Y-117985054D01*
X151192908Y-117968201D01*
X150969426Y-117985054D01*
X150775252Y-118001723D01*
X150662613Y-117984480D01*
X150589035Y-117938477D01*
X150543515Y-117863184D01*
X150526308Y-117746734D01*
X150539503Y-117641221D01*
X150573713Y-117573219D01*
X150626483Y-117531466D01*
X150703079Y-117512444D01*
X150771005Y-117495511D01*
X150806885Y-117461658D01*
X150819399Y-117408030D01*
X150819399Y-116822946D01*
X150810307Y-116660231D01*
X150787369Y-116551472D01*
X150755652Y-116482044D01*
X150705649Y-116429209D01*
X150635755Y-116396075D01*
X150538948Y-116383859D01*
X150427798Y-116397339D01*
X150333498Y-116436194D01*
X150252084Y-116500912D01*
X150190105Y-116584715D01*
X150152529Y-116682304D01*
X150139427Y-116797667D01*
X150139427Y-117232541D01*
X150145346Y-117402618D01*
X150156463Y-117460237D01*
X150185416Y-117490765D01*
X150255015Y-117512444D01*
X150320906Y-117533596D01*
X150367178Y-117574676D01*
X150397432Y-117639605D01*
X150409071Y-117738307D01*
X150392653Y-117861878D01*
X150350245Y-117939425D01*
X150284179Y-117985059D01*
X150186139Y-118001723D01*
X150030617Y-117989084D01*
X149799258Y-117968201D01*
X149574310Y-117985054D01*
X149349180Y-118001723D01*
X149230165Y-117983019D01*
X149151823Y-117932798D01*
X149102903Y-117849832D01*
X149084298Y-117720539D01*
X149099026Y-117610597D01*
X149137138Y-117541445D01*
X149196678Y-117500633D01*
X149285249Y-117485699D01*
X149360537Y-117502002D01*
X149423368Y-117518306D01*
X149455539Y-117502544D01*
X149481923Y-117440092D01*
X149494626Y-117284016D01*
X149494626Y-116605692D01*
X149481859Y-116446393D01*
X149455415Y-116382917D01*
X149423368Y-116367006D01*
X149358339Y-116381294D01*
X149285066Y-116395582D01*
X149196281Y-116380790D01*
X149136813Y-116340490D01*
X149098908Y-116272501D01*
X149084298Y-116164773D01*
X149102357Y-116048138D01*
X149153358Y-115959242D01*
X149232581Y-115899844D01*
X149335441Y-115879558D01*
X149478872Y-115900441D01*
X149588415Y-115913080D01*
X149761523Y-115896411D01*
X149896528Y-115879558D01*
X149960869Y-115893171D01*
X149996923Y-115930047D01*
X150010467Y-115997161D01*
G37*
G36*
X154001732Y-115178450D02*
G01*
X154053114Y-115212958D01*
X154081123Y-115273248D01*
X154093230Y-115391927D01*
X154093230Y-117308012D01*
X154106561Y-117448196D01*
X154135104Y-117506849D01*
X154172182Y-117522702D01*
X154234647Y-117507498D01*
X154301142Y-117497606D01*
X154379771Y-117511018D01*
X154432813Y-117547779D01*
X154466903Y-117610328D01*
X154480111Y-117710097D01*
X154463563Y-117830232D01*
X154417646Y-117920390D01*
X154345095Y-117981306D01*
X154251317Y-118001723D01*
X154225854Y-118001723D01*
X154077843Y-117975345D01*
X153934045Y-117966552D01*
X153752145Y-117975894D01*
X153638023Y-117990000D01*
X153565272Y-117973459D01*
X153523250Y-117927409D01*
X153507048Y-117841072D01*
X153507048Y-117688299D01*
X153409074Y-117824687D01*
X153297017Y-117927157D01*
X153169479Y-117999953D01*
X153023366Y-118044719D01*
X152854187Y-118060341D01*
X152669480Y-118040345D01*
X152505125Y-117981956D01*
X152356331Y-117884418D01*
X152220193Y-117742887D01*
X152113856Y-117578709D01*
X152036391Y-117393162D01*
X151988124Y-117182488D01*
X151971249Y-116942015D01*
X151972577Y-116922780D01*
X152643161Y-116922780D01*
X152643161Y-116977918D01*
X152655610Y-117147927D01*
X152689524Y-117280991D01*
X152741346Y-117384583D01*
X152816237Y-117468237D01*
X152903344Y-117516361D01*
X153007144Y-117532777D01*
X153121750Y-117515036D01*
X153219931Y-117462745D01*
X153306280Y-117371760D01*
X153367725Y-117258879D01*
X153407089Y-117118562D01*
X153421318Y-116944030D01*
X153407169Y-116775134D01*
X153367934Y-116638940D01*
X153306463Y-116528939D01*
X153220454Y-116441059D01*
X153120097Y-116389761D01*
X153000366Y-116372135D01*
X152903112Y-116388168D01*
X152818616Y-116435967D01*
X152742995Y-116520512D01*
X152690125Y-116624064D01*
X152655731Y-116755799D01*
X152643161Y-116922780D01*
X151972577Y-116922780D01*
X151988213Y-116696232D01*
X152036270Y-116485415D01*
X152112587Y-116303967D01*
X152216346Y-116147370D01*
X152349646Y-116013933D01*
X152498742Y-115920693D01*
X152666915Y-115864135D01*
X152859316Y-115844570D01*
X153012716Y-115859485D01*
X153160012Y-115904209D01*
X153303755Y-115980368D01*
X153445865Y-116091683D01*
X153445865Y-115793096D01*
X153431718Y-115703308D01*
X153397109Y-115658609D01*
X153341451Y-115643620D01*
X153240334Y-115652046D01*
X153130975Y-115668715D01*
X153058114Y-115652272D01*
X152996336Y-115601488D01*
X152955933Y-115527472D01*
X152941748Y-115433326D01*
X152960774Y-115312701D01*
X153011904Y-115233214D01*
X153096484Y-115183515D01*
X153228428Y-115164598D01*
X153363616Y-115169361D01*
X153591311Y-115188046D01*
X153751596Y-115176322D01*
X153907667Y-115164598D01*
X154001732Y-115178450D01*
G37*
G36*
X155937073Y-115838578D02*
G01*
X156125869Y-115888144D01*
X156288369Y-115967450D01*
X156428803Y-116076662D01*
X156543872Y-116212432D01*
X156626573Y-116368516D01*
X156677883Y-116548884D01*
X156695882Y-116759016D01*
X156682061Y-116918849D01*
X156651552Y-116993489D01*
X156592612Y-117035040D01*
X156476980Y-117052107D01*
X155449694Y-117052107D01*
X155381406Y-117057013D01*
X155354989Y-117066945D01*
X155341954Y-117088485D01*
X155335938Y-117141133D01*
X155349042Y-117255141D01*
X155386828Y-117352749D01*
X155449511Y-117437705D01*
X155531669Y-117503423D01*
X155625838Y-117542670D01*
X155735825Y-117556224D01*
X155846570Y-117537412D01*
X155965597Y-117476463D01*
X156097976Y-117361318D01*
X156188766Y-117283533D01*
X156280404Y-117239971D01*
X156375863Y-117225764D01*
X156492479Y-117244460D01*
X156580111Y-117297205D01*
X156638480Y-117377534D01*
X156658147Y-117477456D01*
X156642671Y-117590250D01*
X156596127Y-117694760D01*
X156514869Y-117794330D01*
X156391067Y-117890532D01*
X156206171Y-117982665D01*
X155991774Y-118040128D01*
X155741503Y-118060341D01*
X155494616Y-118039867D01*
X155283158Y-117981617D01*
X155100741Y-117888051D01*
X154942646Y-117758457D01*
X154814716Y-117599024D01*
X154722183Y-117415088D01*
X154664517Y-117201920D01*
X154644242Y-116953189D01*
X154664305Y-116702445D01*
X154705181Y-116547807D01*
X155357187Y-116547807D01*
X155369827Y-116589755D01*
X155391115Y-116600811D01*
X155458487Y-116606608D01*
X155931280Y-116606608D01*
X155987884Y-116601769D01*
X156009132Y-116591953D01*
X156023970Y-116539380D01*
X156013592Y-116470927D01*
X155982258Y-116408062D01*
X155926884Y-116348504D01*
X155821923Y-116287258D01*
X155699005Y-116266622D01*
X155592690Y-116281328D01*
X155502669Y-116324068D01*
X155424781Y-116396681D01*
X155372014Y-116481269D01*
X155357187Y-116547807D01*
X154705181Y-116547807D01*
X154721512Y-116486025D01*
X154813465Y-116297930D01*
X154940631Y-116133632D01*
X155098499Y-115998121D01*
X155277375Y-115901442D01*
X155481405Y-115841891D01*
X155716407Y-115821123D01*
X155937073Y-115838578D01*
G37*
G36*
X157792044Y-115998627D02*
G01*
X157792044Y-116356564D01*
X157861567Y-116159006D01*
X157931446Y-116040942D01*
X158032426Y-115940527D01*
X158150142Y-115869089D01*
X158287921Y-115824926D01*
X158450767Y-115809399D01*
X158599550Y-115826534D01*
X158728109Y-115876132D01*
X158841128Y-115958693D01*
X158929532Y-116066446D01*
X158981723Y-116187516D01*
X158999581Y-116326523D01*
X158987812Y-116437604D01*
X158954276Y-116530918D01*
X158899563Y-116610272D01*
X158826753Y-116672227D01*
X158743240Y-116708983D01*
X158645490Y-116721646D01*
X158537118Y-116702665D01*
X158447653Y-116646725D01*
X158386668Y-116563282D01*
X158366503Y-116463909D01*
X158376987Y-116401528D01*
X158417245Y-116301793D01*
X158391599Y-116301793D01*
X158260286Y-116320673D01*
X158156438Y-116374328D01*
X158073223Y-116464478D01*
X158009115Y-116600563D01*
X157952878Y-116850903D01*
X157932728Y-117151941D01*
X157932728Y-117311859D01*
X157941019Y-117449510D01*
X157958007Y-117505483D01*
X157980020Y-117523870D01*
X158017175Y-117530762D01*
X158122871Y-117514275D01*
X158224537Y-117497606D01*
X158310673Y-117513807D01*
X158382990Y-117562269D01*
X158432192Y-117633569D01*
X158448569Y-117718340D01*
X158427860Y-117829797D01*
X158366687Y-117920390D01*
X158276116Y-117981291D01*
X158167201Y-118001723D01*
X157931995Y-117979741D01*
X157667297Y-117966552D01*
X157385746Y-117979741D01*
X157137901Y-118001723D01*
X157021346Y-117983169D01*
X156944333Y-117933196D01*
X156896026Y-117850259D01*
X156877599Y-117720539D01*
X156892327Y-117610597D01*
X156930438Y-117541445D01*
X156989978Y-117500633D01*
X157078550Y-117485699D01*
X157153838Y-117502002D01*
X157216669Y-117518306D01*
X157248777Y-117502469D01*
X157275192Y-117439505D01*
X157287927Y-117281817D01*
X157287927Y-116597449D01*
X157275128Y-116436537D01*
X157248654Y-116372551D01*
X157216669Y-116356564D01*
X157151639Y-116370303D01*
X157078367Y-116384042D01*
X156989582Y-116369249D01*
X156930114Y-116328949D01*
X156892208Y-116260961D01*
X156877599Y-116153232D01*
X156895142Y-116036421D01*
X156944460Y-115947702D01*
X157020641Y-115887949D01*
X157115553Y-115868018D01*
X157232423Y-115885054D01*
X157374389Y-115902090D01*
X157520568Y-115885054D01*
X157662534Y-115868018D01*
X157735953Y-115883285D01*
X157776798Y-115924376D01*
X157792044Y-115998627D01*
G37*
D10*
G36*
X137540265Y-114820000D02*
G01*
X136734508Y-114820000D01*
X136365212Y-113913370D01*
X134647208Y-113913370D01*
X134289148Y-114820000D01*
X133500000Y-114820000D01*
X134160835Y-113303740D01*
X134887787Y-113303740D01*
X136119016Y-113303740D01*
X135508897Y-111691981D01*
X134887787Y-113303740D01*
X134160835Y-113303740D01*
X135223621Y-110865219D01*
X135833496Y-110865219D01*
X137540265Y-114820000D01*
G37*
G36*
X141155792Y-113363579D02*
G01*
X141141466Y-113598938D01*
X141099962Y-113812637D01*
X141032693Y-114007648D01*
X140885831Y-114275227D01*
X140696859Y-114495645D01*
X140466580Y-114672240D01*
X140193230Y-114805101D01*
X139893368Y-114885982D01*
X139560886Y-114913789D01*
X139228370Y-114885987D01*
X138928297Y-114805101D01*
X138654638Y-114672393D01*
X138421981Y-114495645D01*
X138289842Y-114353339D01*
X138178067Y-114191373D01*
X138086147Y-114007648D01*
X138020517Y-113812778D01*
X137979979Y-113599063D01*
X137965980Y-113363579D01*
X137965980Y-110865219D01*
X138671109Y-110865219D01*
X138671109Y-113338911D01*
X138681929Y-113484987D01*
X138715806Y-113642749D01*
X138775120Y-113794845D01*
X138864061Y-113935352D01*
X138982311Y-114055477D01*
X139138346Y-114155415D01*
X139321906Y-114218528D01*
X139560886Y-114241632D01*
X139799865Y-114218528D01*
X139983426Y-114155415D01*
X140139413Y-114055464D01*
X140257466Y-113935352D01*
X140346541Y-113794823D01*
X140405722Y-113642749D01*
X140439784Y-113484979D01*
X140450662Y-113338911D01*
X140450662Y-110865219D01*
X141155792Y-110865219D01*
X141155792Y-113363579D01*
G37*
G36*
X143682450Y-110878699D02*
G01*
X143951395Y-110918464D01*
X144205534Y-110991573D01*
X144424249Y-111100181D01*
X144609811Y-111250483D01*
X144754466Y-111446762D01*
X144820218Y-111597086D01*
X144862405Y-111779395D01*
X144877564Y-112000460D01*
X144849661Y-112279016D01*
X144769848Y-112516703D01*
X144639672Y-112721953D01*
X144511594Y-112850097D01*
X144358482Y-112951365D01*
X144176421Y-113026529D01*
X143959944Y-113074152D01*
X145011898Y-114820000D01*
X144161200Y-114820000D01*
X143243579Y-113147424D01*
X142728715Y-113147424D01*
X142728715Y-114820000D01*
X142023586Y-114820000D01*
X142023586Y-112537794D01*
X142728715Y-112537794D01*
X143277041Y-112537794D01*
X143579169Y-112524117D01*
X143725841Y-112500105D01*
X143856140Y-112457683D01*
X143970563Y-112390891D01*
X144060572Y-112296971D01*
X144117413Y-112174896D01*
X144138974Y-111995331D01*
X144119362Y-111835041D01*
X144066189Y-111718604D01*
X143982295Y-111626578D01*
X143875924Y-111560823D01*
X143753864Y-111517577D01*
X143615561Y-111491458D01*
X143338590Y-111474849D01*
X142728715Y-111474849D01*
X142728715Y-112537794D01*
X142023586Y-112537794D01*
X142023586Y-110865219D01*
X143400139Y-110865219D01*
X143682450Y-110878699D01*
G37*
G36*
X147735837Y-110769150D02*
G01*
X148018354Y-110815364D01*
X148279378Y-110892819D01*
X148527259Y-111003561D01*
X148748293Y-111142086D01*
X148945184Y-111309009D01*
X149116742Y-111502226D01*
X149262058Y-111721131D01*
X149381646Y-111968464D01*
X149467333Y-112229866D01*
X149520212Y-112515544D01*
X149538450Y-112829176D01*
X149520280Y-113135244D01*
X149467471Y-113415367D01*
X149381646Y-113673035D01*
X149262346Y-113916747D01*
X149117074Y-114133950D01*
X148945184Y-114327117D01*
X148748661Y-114494998D01*
X148527583Y-114637330D01*
X148279378Y-114754542D01*
X148017912Y-114839328D01*
X147735365Y-114892877D01*
X147428681Y-114913789D01*
X147125533Y-114896702D01*
X146845738Y-114846896D01*
X146586287Y-114765778D01*
X146340058Y-114651925D01*
X146120870Y-114512371D01*
X145926099Y-114346657D01*
X145756083Y-114155472D01*
X145611662Y-113939292D01*
X145492323Y-113695505D01*
X145406635Y-113437849D01*
X145353907Y-113157725D01*
X145335764Y-112851646D01*
X145338354Y-112806950D01*
X146074598Y-112806950D01*
X146099742Y-113116098D01*
X146172540Y-113392400D01*
X146291983Y-113643823D01*
X146449511Y-113854996D01*
X146645220Y-114028518D01*
X146877424Y-114161521D01*
X147137110Y-114244214D01*
X147434542Y-114272896D01*
X147732135Y-114244284D01*
X147994103Y-114161521D01*
X148228768Y-114028335D01*
X148424947Y-113854996D01*
X148582475Y-113643823D01*
X148701919Y-113392400D01*
X148774717Y-113116098D01*
X148799860Y-112806950D01*
X148774928Y-112518742D01*
X148701919Y-112255205D01*
X148582963Y-112013610D01*
X148424947Y-111806531D01*
X148228834Y-111635791D01*
X147994103Y-111505380D01*
X147732272Y-111424640D01*
X147434542Y-111396692D01*
X147136971Y-111424709D01*
X146877424Y-111505380D01*
X146645156Y-111635609D01*
X146449511Y-111806531D01*
X146291495Y-112013610D01*
X146172540Y-112255205D01*
X146099530Y-112518742D01*
X146074598Y-112806950D01*
X145338354Y-112806950D01*
X145353938Y-112538001D01*
X145406703Y-112251384D01*
X145492323Y-111988248D01*
X145611973Y-111738813D01*
X145756448Y-111518984D01*
X145926099Y-111325861D01*
X146121065Y-111158411D01*
X146340256Y-111017994D01*
X146586287Y-110904054D01*
X146845749Y-110822799D01*
X147125542Y-110772912D01*
X147428681Y-110755799D01*
X147735837Y-110769150D01*
G37*
G36*
X151869470Y-110878699D02*
G01*
X152138415Y-110918464D01*
X152392554Y-110991573D01*
X152611270Y-111100181D01*
X152796831Y-111250483D01*
X152941486Y-111446762D01*
X153007239Y-111597086D01*
X153049425Y-111779395D01*
X153064584Y-112000460D01*
X153036682Y-112279016D01*
X152956868Y-112516703D01*
X152826692Y-112721953D01*
X152698614Y-112850097D01*
X152545502Y-112951365D01*
X152363441Y-113026529D01*
X152146964Y-113074152D01*
X153198918Y-114820000D01*
X152348220Y-114820000D01*
X151430600Y-113147424D01*
X150915736Y-113147424D01*
X150915736Y-114820000D01*
X150210607Y-114820000D01*
X150210607Y-112537794D01*
X150915736Y-112537794D01*
X151464061Y-112537794D01*
X151766189Y-112524117D01*
X151912861Y-112500105D01*
X152043161Y-112457683D01*
X152157583Y-112390891D01*
X152247592Y-112296971D01*
X152304433Y-112174896D01*
X152325994Y-111995331D01*
X152306382Y-111835041D01*
X152253210Y-111718604D01*
X152169315Y-111626578D01*
X152062944Y-111560823D01*
X151940885Y-111517577D01*
X151802581Y-111491458D01*
X151525610Y-111474849D01*
X150915736Y-111474849D01*
X150915736Y-112537794D01*
X150210607Y-112537794D01*
X150210607Y-110865219D01*
X151587159Y-110865219D01*
X151869470Y-110878699D01*
G37*
G36*
X157333705Y-114820000D02*
G01*
X156527948Y-114820000D01*
X156158653Y-113913370D01*
X154440648Y-113913370D01*
X154082588Y-114820000D01*
X153293440Y-114820000D01*
X153954275Y-113303740D01*
X154681228Y-113303740D01*
X155912456Y-113303740D01*
X155302337Y-111691981D01*
X154681228Y-113303740D01*
X153954275Y-113303740D01*
X155017062Y-110865219D01*
X155626936Y-110865219D01*
X157333705Y-114820000D01*
G37*
D12*
X153179524Y-100654295D02*
X153179524Y-99854295D01*
X153179524Y-99854295D02*
X153370000Y-99854295D01*
X153370000Y-99854295D02*
X153484286Y-99892390D01*
X153484286Y-99892390D02*
X153560476Y-99968580D01*
X153560476Y-99968580D02*
X153598571Y-100044771D01*
X153598571Y-100044771D02*
X153636667Y-100197152D01*
X153636667Y-100197152D02*
X153636667Y-100311438D01*
X153636667Y-100311438D02*
X153598571Y-100463819D01*
X153598571Y-100463819D02*
X153560476Y-100540009D01*
X153560476Y-100540009D02*
X153484286Y-100616200D01*
X153484286Y-100616200D02*
X153370000Y-100654295D01*
X153370000Y-100654295D02*
X153179524Y-100654295D01*
X153903333Y-99854295D02*
X154398571Y-99854295D01*
X154398571Y-99854295D02*
X154131905Y-100159057D01*
X154131905Y-100159057D02*
X154246190Y-100159057D01*
X154246190Y-100159057D02*
X154322381Y-100197152D01*
X154322381Y-100197152D02*
X154360476Y-100235247D01*
X154360476Y-100235247D02*
X154398571Y-100311438D01*
X154398571Y-100311438D02*
X154398571Y-100501914D01*
X154398571Y-100501914D02*
X154360476Y-100578104D01*
X154360476Y-100578104D02*
X154322381Y-100616200D01*
X154322381Y-100616200D02*
X154246190Y-100654295D01*
X154246190Y-100654295D02*
X154017619Y-100654295D01*
X154017619Y-100654295D02*
X153941428Y-100616200D01*
X153941428Y-100616200D02*
X153903333Y-100578104D01*
X153219524Y-82654295D02*
X153219524Y-81854295D01*
X153219524Y-81854295D02*
X153410000Y-81854295D01*
X153410000Y-81854295D02*
X153524286Y-81892390D01*
X153524286Y-81892390D02*
X153600476Y-81968580D01*
X153600476Y-81968580D02*
X153638571Y-82044771D01*
X153638571Y-82044771D02*
X153676667Y-82197152D01*
X153676667Y-82197152D02*
X153676667Y-82311438D01*
X153676667Y-82311438D02*
X153638571Y-82463819D01*
X153638571Y-82463819D02*
X153600476Y-82540009D01*
X153600476Y-82540009D02*
X153524286Y-82616200D01*
X153524286Y-82616200D02*
X153410000Y-82654295D01*
X153410000Y-82654295D02*
X153219524Y-82654295D01*
X154438571Y-82654295D02*
X153981428Y-82654295D01*
X154210000Y-82654295D02*
X154210000Y-81854295D01*
X154210000Y-81854295D02*
X154133809Y-81968580D01*
X154133809Y-81968580D02*
X154057619Y-82044771D01*
X154057619Y-82044771D02*
X153981428Y-82082866D01*
X142793333Y-84534819D02*
X142460000Y-84058628D01*
X142221905Y-84534819D02*
X142221905Y-83534819D01*
X142221905Y-83534819D02*
X142602857Y-83534819D01*
X142602857Y-83534819D02*
X142698095Y-83582438D01*
X142698095Y-83582438D02*
X142745714Y-83630057D01*
X142745714Y-83630057D02*
X142793333Y-83725295D01*
X142793333Y-83725295D02*
X142793333Y-83868152D01*
X142793333Y-83868152D02*
X142745714Y-83963390D01*
X142745714Y-83963390D02*
X142698095Y-84011009D01*
X142698095Y-84011009D02*
X142602857Y-84058628D01*
X142602857Y-84058628D02*
X142221905Y-84058628D01*
X143745714Y-84534819D02*
X143174286Y-84534819D01*
X143460000Y-84534819D02*
X143460000Y-83534819D01*
X143460000Y-83534819D02*
X143364762Y-83677676D01*
X143364762Y-83677676D02*
X143269524Y-83772914D01*
X143269524Y-83772914D02*
X143174286Y-83820533D01*
X153179524Y-91654295D02*
X153179524Y-90854295D01*
X153179524Y-90854295D02*
X153370000Y-90854295D01*
X153370000Y-90854295D02*
X153484286Y-90892390D01*
X153484286Y-90892390D02*
X153560476Y-90968580D01*
X153560476Y-90968580D02*
X153598571Y-91044771D01*
X153598571Y-91044771D02*
X153636667Y-91197152D01*
X153636667Y-91197152D02*
X153636667Y-91311438D01*
X153636667Y-91311438D02*
X153598571Y-91463819D01*
X153598571Y-91463819D02*
X153560476Y-91540009D01*
X153560476Y-91540009D02*
X153484286Y-91616200D01*
X153484286Y-91616200D02*
X153370000Y-91654295D01*
X153370000Y-91654295D02*
X153179524Y-91654295D01*
X153941428Y-90930485D02*
X153979524Y-90892390D01*
X153979524Y-90892390D02*
X154055714Y-90854295D01*
X154055714Y-90854295D02*
X154246190Y-90854295D01*
X154246190Y-90854295D02*
X154322381Y-90892390D01*
X154322381Y-90892390D02*
X154360476Y-90930485D01*
X154360476Y-90930485D02*
X154398571Y-91006676D01*
X154398571Y-91006676D02*
X154398571Y-91082866D01*
X154398571Y-91082866D02*
X154360476Y-91197152D01*
X154360476Y-91197152D02*
X153903333Y-91654295D01*
X153903333Y-91654295D02*
X154398571Y-91654295D01*
X118976667Y-68573200D02*
X119119524Y-68620819D01*
X119119524Y-68620819D02*
X119357619Y-68620819D01*
X119357619Y-68620819D02*
X119452857Y-68573200D01*
X119452857Y-68573200D02*
X119500476Y-68525580D01*
X119500476Y-68525580D02*
X119548095Y-68430342D01*
X119548095Y-68430342D02*
X119548095Y-68335104D01*
X119548095Y-68335104D02*
X119500476Y-68239866D01*
X119500476Y-68239866D02*
X119452857Y-68192247D01*
X119452857Y-68192247D02*
X119357619Y-68144628D01*
X119357619Y-68144628D02*
X119167143Y-68097009D01*
X119167143Y-68097009D02*
X119071905Y-68049390D01*
X119071905Y-68049390D02*
X119024286Y-68001771D01*
X119024286Y-68001771D02*
X118976667Y-67906533D01*
X118976667Y-67906533D02*
X118976667Y-67811295D01*
X118976667Y-67811295D02*
X119024286Y-67716057D01*
X119024286Y-67716057D02*
X119071905Y-67668438D01*
X119071905Y-67668438D02*
X119167143Y-67620819D01*
X119167143Y-67620819D02*
X119405238Y-67620819D01*
X119405238Y-67620819D02*
X119548095Y-67668438D01*
X119881429Y-67620819D02*
X120119524Y-68620819D01*
X120119524Y-68620819D02*
X120310000Y-67906533D01*
X120310000Y-67906533D02*
X120500476Y-68620819D01*
X120500476Y-68620819D02*
X120738572Y-67620819D01*
X121643333Y-68620819D02*
X121071905Y-68620819D01*
X121357619Y-68620819D02*
X121357619Y-67620819D01*
X121357619Y-67620819D02*
X121262381Y-67763676D01*
X121262381Y-67763676D02*
X121167143Y-67858914D01*
X121167143Y-67858914D02*
X121071905Y-67906533D01*
X142793333Y-93534819D02*
X142460000Y-93058628D01*
X142221905Y-93534819D02*
X142221905Y-92534819D01*
X142221905Y-92534819D02*
X142602857Y-92534819D01*
X142602857Y-92534819D02*
X142698095Y-92582438D01*
X142698095Y-92582438D02*
X142745714Y-92630057D01*
X142745714Y-92630057D02*
X142793333Y-92725295D01*
X142793333Y-92725295D02*
X142793333Y-92868152D01*
X142793333Y-92868152D02*
X142745714Y-92963390D01*
X142745714Y-92963390D02*
X142698095Y-93011009D01*
X142698095Y-93011009D02*
X142602857Y-93058628D01*
X142602857Y-93058628D02*
X142221905Y-93058628D01*
X143174286Y-92630057D02*
X143221905Y-92582438D01*
X143221905Y-92582438D02*
X143317143Y-92534819D01*
X143317143Y-92534819D02*
X143555238Y-92534819D01*
X143555238Y-92534819D02*
X143650476Y-92582438D01*
X143650476Y-92582438D02*
X143698095Y-92630057D01*
X143698095Y-92630057D02*
X143745714Y-92725295D01*
X143745714Y-92725295D02*
X143745714Y-92820533D01*
X143745714Y-92820533D02*
X143698095Y-92963390D01*
X143698095Y-92963390D02*
X143126667Y-93534819D01*
X143126667Y-93534819D02*
X143745714Y-93534819D01*
X142793333Y-102534819D02*
X142460000Y-102058628D01*
X142221905Y-102534819D02*
X142221905Y-101534819D01*
X142221905Y-101534819D02*
X142602857Y-101534819D01*
X142602857Y-101534819D02*
X142698095Y-101582438D01*
X142698095Y-101582438D02*
X142745714Y-101630057D01*
X142745714Y-101630057D02*
X142793333Y-101725295D01*
X142793333Y-101725295D02*
X142793333Y-101868152D01*
X142793333Y-101868152D02*
X142745714Y-101963390D01*
X142745714Y-101963390D02*
X142698095Y-102011009D01*
X142698095Y-102011009D02*
X142602857Y-102058628D01*
X142602857Y-102058628D02*
X142221905Y-102058628D01*
X143126667Y-101534819D02*
X143745714Y-101534819D01*
X143745714Y-101534819D02*
X143412381Y-101915771D01*
X143412381Y-101915771D02*
X143555238Y-101915771D01*
X143555238Y-101915771D02*
X143650476Y-101963390D01*
X143650476Y-101963390D02*
X143698095Y-102011009D01*
X143698095Y-102011009D02*
X143745714Y-102106247D01*
X143745714Y-102106247D02*
X143745714Y-102344342D01*
X143745714Y-102344342D02*
X143698095Y-102439580D01*
X143698095Y-102439580D02*
X143650476Y-102487200D01*
X143650476Y-102487200D02*
X143555238Y-102534819D01*
X143555238Y-102534819D02*
X143269524Y-102534819D01*
X143269524Y-102534819D02*
X143174286Y-102487200D01*
X143174286Y-102487200D02*
X143126667Y-102439580D01*
D13*
X138396190Y-58273479D02*
X138396190Y-58787526D01*
X138396190Y-58787526D02*
X138426428Y-58848002D01*
X138426428Y-58848002D02*
X138456666Y-58878241D01*
X138456666Y-58878241D02*
X138517142Y-58908479D01*
X138517142Y-58908479D02*
X138638095Y-58908479D01*
X138638095Y-58908479D02*
X138698571Y-58878241D01*
X138698571Y-58878241D02*
X138728809Y-58848002D01*
X138728809Y-58848002D02*
X138759047Y-58787526D01*
X138759047Y-58787526D02*
X138759047Y-58273479D01*
X139394047Y-58908479D02*
X139031190Y-58908479D01*
X139212618Y-58908479D02*
X139212618Y-58273479D01*
X139212618Y-58273479D02*
X139152142Y-58364193D01*
X139152142Y-58364193D02*
X139091666Y-58424669D01*
X139091666Y-58424669D02*
X139031190Y-58454907D01*
D12*
X119086667Y-113033200D02*
X119229524Y-113080819D01*
X119229524Y-113080819D02*
X119467619Y-113080819D01*
X119467619Y-113080819D02*
X119562857Y-113033200D01*
X119562857Y-113033200D02*
X119610476Y-112985580D01*
X119610476Y-112985580D02*
X119658095Y-112890342D01*
X119658095Y-112890342D02*
X119658095Y-112795104D01*
X119658095Y-112795104D02*
X119610476Y-112699866D01*
X119610476Y-112699866D02*
X119562857Y-112652247D01*
X119562857Y-112652247D02*
X119467619Y-112604628D01*
X119467619Y-112604628D02*
X119277143Y-112557009D01*
X119277143Y-112557009D02*
X119181905Y-112509390D01*
X119181905Y-112509390D02*
X119134286Y-112461771D01*
X119134286Y-112461771D02*
X119086667Y-112366533D01*
X119086667Y-112366533D02*
X119086667Y-112271295D01*
X119086667Y-112271295D02*
X119134286Y-112176057D01*
X119134286Y-112176057D02*
X119181905Y-112128438D01*
X119181905Y-112128438D02*
X119277143Y-112080819D01*
X119277143Y-112080819D02*
X119515238Y-112080819D01*
X119515238Y-112080819D02*
X119658095Y-112128438D01*
X119991429Y-112080819D02*
X120229524Y-113080819D01*
X120229524Y-113080819D02*
X120420000Y-112366533D01*
X120420000Y-112366533D02*
X120610476Y-113080819D01*
X120610476Y-113080819D02*
X120848572Y-112080819D01*
X121134286Y-112080819D02*
X121753333Y-112080819D01*
X121753333Y-112080819D02*
X121420000Y-112461771D01*
X121420000Y-112461771D02*
X121562857Y-112461771D01*
X121562857Y-112461771D02*
X121658095Y-112509390D01*
X121658095Y-112509390D02*
X121705714Y-112557009D01*
X121705714Y-112557009D02*
X121753333Y-112652247D01*
X121753333Y-112652247D02*
X121753333Y-112890342D01*
X121753333Y-112890342D02*
X121705714Y-112985580D01*
X121705714Y-112985580D02*
X121658095Y-113033200D01*
X121658095Y-113033200D02*
X121562857Y-113080819D01*
X121562857Y-113080819D02*
X121277143Y-113080819D01*
X121277143Y-113080819D02*
X121181905Y-113033200D01*
X121181905Y-113033200D02*
X121134286Y-112985580D01*
X118976667Y-90573200D02*
X119119524Y-90620819D01*
X119119524Y-90620819D02*
X119357619Y-90620819D01*
X119357619Y-90620819D02*
X119452857Y-90573200D01*
X119452857Y-90573200D02*
X119500476Y-90525580D01*
X119500476Y-90525580D02*
X119548095Y-90430342D01*
X119548095Y-90430342D02*
X119548095Y-90335104D01*
X119548095Y-90335104D02*
X119500476Y-90239866D01*
X119500476Y-90239866D02*
X119452857Y-90192247D01*
X119452857Y-90192247D02*
X119357619Y-90144628D01*
X119357619Y-90144628D02*
X119167143Y-90097009D01*
X119167143Y-90097009D02*
X119071905Y-90049390D01*
X119071905Y-90049390D02*
X119024286Y-90001771D01*
X119024286Y-90001771D02*
X118976667Y-89906533D01*
X118976667Y-89906533D02*
X118976667Y-89811295D01*
X118976667Y-89811295D02*
X119024286Y-89716057D01*
X119024286Y-89716057D02*
X119071905Y-89668438D01*
X119071905Y-89668438D02*
X119167143Y-89620819D01*
X119167143Y-89620819D02*
X119405238Y-89620819D01*
X119405238Y-89620819D02*
X119548095Y-89668438D01*
X119881429Y-89620819D02*
X120119524Y-90620819D01*
X120119524Y-90620819D02*
X120310000Y-89906533D01*
X120310000Y-89906533D02*
X120500476Y-90620819D01*
X120500476Y-90620819D02*
X120738572Y-89620819D01*
X121071905Y-89716057D02*
X121119524Y-89668438D01*
X121119524Y-89668438D02*
X121214762Y-89620819D01*
X121214762Y-89620819D02*
X121452857Y-89620819D01*
X121452857Y-89620819D02*
X121548095Y-89668438D01*
X121548095Y-89668438D02*
X121595714Y-89716057D01*
X121595714Y-89716057D02*
X121643333Y-89811295D01*
X121643333Y-89811295D02*
X121643333Y-89906533D01*
X121643333Y-89906533D02*
X121595714Y-90049390D01*
X121595714Y-90049390D02*
X121024286Y-90620819D01*
X121024286Y-90620819D02*
X121643333Y-90620819D01*
D11*
%TO.C,D3*%
X150630000Y-104000000D02*
G75*
G02*
X150430000Y-104000000I-100000J0D01*
G01*
X150430000Y-104000000D02*
G75*
G02*
X150630000Y-104000000I100000J0D01*
G01*
D14*
X151230000Y-102434000D02*
G75*
G02*
X151230000Y-105566000I2506124J-1566000D01*
G01*
X151230000Y-102434000D02*
X151230000Y-105566000D01*
%TO.C,D1*%
X151270000Y-84434000D02*
X151270000Y-87566000D01*
X151270000Y-84434000D02*
G75*
G02*
X151270000Y-87566000I2506124J-1566000D01*
G01*
D11*
X150670000Y-86000000D02*
G75*
G02*
X150470000Y-86000000I-100000J0D01*
G01*
X150470000Y-86000000D02*
G75*
G02*
X150670000Y-86000000I100000J0D01*
G01*
D15*
%TO.C,R1*%
X141040000Y-85080000D02*
X144880000Y-85080000D01*
X141040000Y-86920000D02*
X144880000Y-86920000D01*
D14*
%TO.C,D2*%
X151230000Y-93434000D02*
X151230000Y-96566000D01*
X151230000Y-93434000D02*
G75*
G02*
X151230000Y-96566000I2506124J-1566000D01*
G01*
D11*
X150630000Y-95000000D02*
G75*
G02*
X150430000Y-95000000I-100000J0D01*
G01*
X150430000Y-95000000D02*
G75*
G02*
X150630000Y-95000000I100000J0D01*
G01*
D15*
%TO.C,SW1*%
X113325000Y-69055000D02*
X127295000Y-69055000D01*
X113325000Y-83025000D02*
X113325000Y-69055000D01*
X127295000Y-69055000D02*
X127295000Y-83025000D01*
X127295000Y-83025000D02*
X113325000Y-83025000D01*
%TO.C,R2*%
X141040000Y-94080000D02*
X144880000Y-94080000D01*
X141040000Y-95920000D02*
X144880000Y-95920000D01*
%TO.C,R3*%
X141040000Y-103080000D02*
X144880000Y-103080000D01*
X141040000Y-104920000D02*
X144880000Y-104920000D01*
D14*
%TO.C,U1*%
X138490000Y-79129000D02*
X138490000Y-61984000D01*
X140395000Y-81034000D02*
X154365000Y-81034000D01*
X142885000Y-60079000D02*
X142888728Y-59168728D01*
X143388728Y-58669000D02*
X151384000Y-58669000D01*
X151884000Y-59169000D02*
X151884000Y-60079000D01*
D10*
X154365000Y-60079000D02*
X140395000Y-60079000D01*
D14*
X154365000Y-60079000D02*
X140395000Y-60079000D01*
X156270000Y-79129000D02*
X156270000Y-61984000D01*
X138490000Y-61984000D02*
G75*
G02*
X140395000Y-60079000I1905001J-1D01*
G01*
X140395000Y-81034000D02*
G75*
G02*
X138490000Y-79129000I1J1905001D01*
G01*
X142888728Y-59168728D02*
G75*
G02*
X143388728Y-58669001I500018J-291D01*
G01*
X151384000Y-58669000D02*
G75*
G02*
X151884000Y-59169000I0J-500000D01*
G01*
X154365000Y-60079000D02*
G75*
G02*
X156270000Y-61984000I0J-1905000D01*
G01*
X156270000Y-79129000D02*
G75*
G02*
X154365000Y-81034000I-1905000J0D01*
G01*
D16*
X138682000Y-60320000D02*
G75*
G02*
X138178000Y-60320000I-252000J0D01*
G01*
X138178000Y-60320000D02*
G75*
G02*
X138682000Y-60320000I252000J0D01*
G01*
X139825000Y-61200000D02*
G75*
G02*
X139321000Y-61200000I-252000J0D01*
G01*
X139321000Y-61200000D02*
G75*
G02*
X139825000Y-61200000I252000J0D01*
G01*
D15*
%TO.C,SW3*%
X113435000Y-113515000D02*
X127405000Y-113515000D01*
X113435000Y-127485000D02*
X113435000Y-113515000D01*
X127405000Y-113515000D02*
X127405000Y-127485000D01*
X127405000Y-127485000D02*
X113435000Y-127485000D01*
%TO.C,SW2*%
X113325000Y-91055000D02*
X127295000Y-91055000D01*
X113325000Y-105025000D02*
X113325000Y-91055000D01*
X127295000Y-91055000D02*
X127295000Y-105025000D01*
X127295000Y-105025000D02*
X113325000Y-105025000D01*
%TD*%
M02*
